<?xml version="1.0" standalone="no"?>
<!DOCTYPE svg PUBLIC "-//W3C//DTD SVG 20010904//EN"
 "http://www.w3.org/TR/2001/REC-SVG-20010904/DTD/svg10.dtd">
<svg version="1.0" xmlns="http://www.w3.org/2000/svg"
 width="128.000000pt" height="128.000000pt" viewBox="0 0 128.000000 128.000000"
 preserveAspectRatio="xMidYMid meet">
<metadata>
Created by potrace 1.14, written by Peter Selinger 2001-2017
</metadata>
<g transform="translate(0.000000,128.000000) scale(0.100000,-0.100000)"
fill="#000000" stroke="none">
<path d="M530 1273 c-227 -42 -424 -216 -501 -444 -32 -93 -32 -286 0 -379 71
-205 217 -351 421 -421 83 -28 238 -34 330 -14 215 49 395 215 471 435 18 54
22 87 22 190 0 109 -3 134 -26 198 -69 198 -216 344 -413 413 -58 20 -242 33
-304 22z"/>
</g>
</svg>
